<svg xmlns="http://www.w3.org/2000/svg" xmlns:xlink="http://www.w3.org/1999/xlink" xml:space="preserve" version="1.1" style="shape-rendering:geometricPrecision;text-rendering:geometricPrecision;image-rendering:optimizeQuality;" viewBox="0 0 50800 50800" x="0px" y="0px" fill-rule="evenodd" clip-rule="evenodd"><defs><style type="text/css">

    .str0 {stroke:black;stroke-width:846;stroke-linecap:round;stroke-linejoin:round}
    .fil0 {fill:none}

  </style></defs><g><path class="fil0 str0" d="M17752 25962c678,-578 1356,-1157 2549,-1919 1193,-763 2901,-1710 4452,-2367 1551,-658 2945,-1026 4050,-982 733,33 1511,249 2120,731 356,282 592,592 657,1096 7,53 11,107 15,161l0 7c4,63 6,125 8,188 12,398 18,786 72,1181 8,59 17,118 27,178l1 8c77,443 247,1065 503,1403 211,279 593,315 890,94"/><path class="fil0 str0" d="M2408 26183c679,-578 1357,-1157 2550,-1920 1193,-762 2900,-1709 4451,-2366 1551,-658 2945,-1026 4050,-982 733,33 1511,249 2120,731 357,282 593,592 657,1096 7,53 12,107 15,161l1 7c3,63 5,125 7,188 12,398 18,785 72,1181 8,59 17,118 27,177l2 9c77,443 246,1064 502,1403 211,279 593,315 890,94"/><path class="fil0 str0" d="M33096 25741c678,-578 1356,-1157 2549,-1919 1193,-763 2901,-1710 4452,-2367 1550,-657 2944,-1026 4049,-982 734,33 1512,249 2121,731 356,282 592,592 657,1096 6,53 11,107 14,161l1 8c4,62 6,124 8,187 11,398 17,786 71,1181 8,59 17,119 28,178l1 8c77,443 247,1065 502,1403 212,279 594,315 891,94"/><path class="fil0 str0" d="M17752 17028c678,-579 1356,-1157 2549,-1920 1193,-763 2901,-1709 4452,-2367 1551,-657 2945,-1025 4050,-981 733,32 1511,248 2120,730 356,283 592,593 657,1096 7,54 11,107 15,161l0 8c4,62 6,125 8,187 12,398 18,786 72,1181 8,60 17,119 27,178l1 9c77,443 247,1064 503,1402 211,279 593,316 890,95"/><path class="fil0 str0" d="M2408 17248c679,-578 1357,-1157 2550,-1919 1193,-763 2900,-1709 4451,-2367 1551,-657 2945,-1025 4050,-982 733,33 1511,249 2120,731 357,282 593,593 657,1096 7,54 12,107 15,161l1 8c3,62 5,125 7,187 12,398 18,786 72,1181 8,59 17,119 27,178l2 8c77,443 246,1065 502,1403 211,279 593,315 890,95"/><path class="fil0 str0" d="M33096 16807c678,-579 1356,-1157 2549,-1920 1193,-763 2901,-1709 4452,-2367 1550,-657 2944,-1025 4049,-981 734,32 1512,248 2121,731 356,282 592,592 657,1095 6,54 11,107 14,161l1 8c4,62 6,125 8,187 11,399 17,786 71,1181 8,60 17,119 28,178l1 9c77,443 247,1064 502,1402 212,279 594,316 891,95"/><path class="fil0 str0" d="M17752 35014c678,-578 1356,-1157 2549,-1919 1193,-763 2901,-1710 4452,-2367 1551,-657 2945,-1026 4050,-982 733,33 1511,249 2120,731 356,282 592,592 657,1096 7,53 11,107 15,161l0 8c4,62 6,124 8,187 12,398 18,786 72,1181 8,59 17,119 27,178l1 8c77,443 247,1065 503,1403 211,279 593,315 890,94"/><path class="fil0 str0" d="M2408 35235c679,-578 1357,-1157 2550,-1919 1193,-763 2900,-1710 4451,-2367 1551,-658 2945,-1026 4050,-982 733,33 1511,249 2120,731 357,282 593,592 657,1096 7,53 12,107 15,161l1 7c3,63 5,125 7,188 12,398 18,786 72,1181 8,59 17,118 27,178l2 8c77,443 246,1064 502,1403 211,279 593,315 890,94"/><path class="fil0 str0" d="M33096 34793c678,-578 1356,-1157 2549,-1919 1193,-763 2901,-1710 4452,-2367 1550,-657 2944,-1025 4049,-982 734,33 1512,249 2121,731 356,282 592,593 657,1096 6,53 11,107 14,161l1 8c4,62 6,124 8,187 11,398 17,786 71,1181 8,59 17,119 28,178l1 8c77,443 247,1065 502,1403 212,279 594,315 891,94"/></g><text x="0" y="50815" fill="#000000" font-size="5px" font-weight="bold" font-family="'Helvetica Neue', Helvetica, Arial-Unicode, Arial, Sans-serif">Created by Alex Muravev</text><text x="0" y="50820" fill="#000000" font-size="5px" font-weight="bold" font-family="'Helvetica Neue', Helvetica, Arial-Unicode, Arial, Sans-serif">from the Noun Project</text></svg>
